<svg width="711.04" height="800" viewBox="0 0 81.92 92.16" xmlns="http://www.w3.org/2000/svg" preserveAspectRatio="xMinYMin meet"><path d="M81.782 27.11c-0.001 -1.546 -0.331 -2.911 -1 -4.084 -0.657 -1.153 -1.64 -2.119 -2.959 -2.883 -10.888 -6.278 -21.787 -12.537 -32.671 -18.821 -2.934 -1.694 -5.78 -1.632 -8.692 0.086C32.126 3.965 10.429 16.396 3.963 20.141 1.3 21.682 0.005 24.041 0.004 27.108 0 39.733 0.004 52.358 0 64.984c0.001 1.512 0.317 2.851 0.956 4.005 0.657 1.188 1.654 2.18 3.004 2.961 6.466 3.745 28.166 16.175 32.499 18.732 2.914 1.719 5.759 1.781 8.694 0.086 10.885 -6.285 21.784 -12.543 32.674 -18.821 1.349 -0.781 2.347 -1.774 3.004 -2.961 0.638 -1.155 0.955 -2.494 0.956 -4.006 0 0 0 -25.244 -0.004 -37.87" fill="#fff"/><path d="M41.018 45.923 0.956 68.99c0.657 1.188 1.654 2.18 3.004 2.961 6.466 3.745 28.166 16.175 32.499 18.732 2.914 1.719 5.759 1.781 8.694 0.086 10.885 -6.285 21.784 -12.543 32.674 -18.821 1.349 -0.781 2.347 -1.774 3.004 -2.961z" fill="#fff"/><path d="M29.152 52.756c2.331 4.07 6.714 6.815 11.741 6.815 5.058 0 9.466 -2.78 11.785 -6.893l-11.66 -6.754z" fill="#fff"/><path d="M81.782 27.11c-0.001 -1.546 -0.331 -2.911 -1 -4.084l-39.764 22.896 39.812 23.064c0.638 -1.155 0.955 -2.494 0.956 -4.006 0 0 0 -25.244 -0.004 -37.87" fill="#fff"/><path d="M79.593 47.572h-3.111v3.112h-3.112v-3.112h-3.111v-3.111h3.111v-3.111h3.112v3.111h3.111zm-11.352 0h-3.111v3.112h-3.111v-3.112h-3.111v-3.111h3.111v-3.111h3.111v3.111h3.111z"/><path d="M52.678 52.677c-2.319 4.113 -6.727 6.893 -11.785 6.893 -5.027 0 -9.41 -2.745 -11.741 -6.815a13.459 13.459 0 0 1 -1.784 -6.71c0 -7.469 6.055 -13.524 13.524 -13.524 4.995 0 9.354 2.711 11.697 6.739l11.821 -6.807c-4.699 -8.111 -13.471 -13.567 -23.518 -13.567 -15 0 -27.16 12.16 -27.16 27.16 0 4.921 1.309 9.536 3.597 13.516 4.687 8.154 13.484 13.644 23.563 13.644 10.098 0 18.908 -5.512 23.588 -13.69z"/></svg>